<!-- Generated by IcoMoon.io -->
<svg version="1.1" xmlns="http://www.w3.org/2000/svg" width="32" height="32" viewBox="0 0 32 32">
<title>ios-home</title>
<path d="M26.142 29.37h-20.912c-0.52 0-0.974-0.455-0.974-0.974v-15.781c0-0.52 0.455-0.974 0.974-0.974s0.974 0.455 0.974 0.974v14.742h18.964v-14.742c0-0.52 0.455-0.974 0.974-0.974s0.974 0.455 0.974 0.974v15.781c0 0.52-0.455 0.974-0.974 0.974z"></path>
<path d="M31.013 17.291c-0.195 0-0.455-0.065-0.649-0.195l-6.17-5.196c-0.195-0.195-0.325-0.455-0.325-0.779v-5.975h-2.468v2.468c0 0.39-0.195 0.714-0.584 0.909-0.325 0.13-0.779 0.13-1.039-0.13l-4.091-3.507-14.093 12.145c-0.39 0.325-1.039 0.325-1.364-0.13-0.325-0.39-0.325-1.039 0.13-1.364l14.677-12.664c0.39-0.325 0.909-0.325 1.234 0l3.117 2.663v-1.364c0-0.52 0.455-0.974 0.974-0.974h4.481c0.52 0 0.974 0.455 0.974 0.974v6.494l5.845 4.871c0.39 0.325 0.455 0.974 0.13 1.364-0.195 0.26-0.52 0.39-0.779 0.39z"></path>
</svg>
