<!-- Generated by IcoMoon.io -->
<svg version="1.1" xmlns="http://www.w3.org/2000/svg" width="32" height="32" viewBox="0 0 32 32">
<title>Untitled-2-01</title>
<path d="M13.639 23.667l1.389 3.378c0.411 1 1.689 0.967 2.056-0.056l1.189-3.311c5.511-1.067 9.678-5.911 9.678-11.722-0.011-6.6-5.367-11.956-11.956-11.956s-11.944 5.356-11.944 11.944c0 5.789 4.122 10.622 9.589 11.722zM15.994 1.667c5.667 0 10.278 4.611 10.278 10.278s-4.611 10.289-10.278 10.289c-5.667 0-10.278-4.611-10.278-10.278s4.611-10.289 10.278-10.289z"></path>
<path d="M25.628 30.433c0 0.865-4.283 1.567-9.567 1.567s-9.567-0.701-9.567-1.567c0-0.865 4.283-1.567 9.567-1.567s9.567 0.701 9.567 1.567z"></path>
<path d="M15.117 14.256l0.411-0.256c-0.078-0.289-0.189-0.556-0.344-0.811l-0.467 0.089 0.267-0.4c-0.189-0.233-0.4-0.444-0.644-0.622l-0.411 0.256 0.089-0.456c-0.256-0.156-0.544-0.267-0.833-0.333l-0.256 0.4-0.089-0.456c-0.156-0.022-0.3-0.033-0.456-0.033s-0.3 0.011-0.456 0.033l-0.078 0.456-0.267-0.4c-0.289 0.067-0.578 0.178-0.833 0.333l0.089 0.456-0.411-0.256c-0.244 0.178-0.456 0.389-0.644 0.622l0.267 0.4-0.467-0.089c-0.156 0.256-0.267 0.522-0.344 0.811l0.411 0.256-0.489 0.089c-0.011 0.144-0.022 0.289-0.011 0.422 0 0.144 0.011 0.3 0.033 0.444l0.489 0.089-0.411 0.256c0.078 0.289 0.189 0.556 0.344 0.811l0.467-0.089-0.267 0.4c0.189 0.233 0.4 0.444 0.644 0.622l0.411-0.256-0.089 0.456c0.256 0.156 0.544 0.267 0.833 0.333l0.267-0.4 0.089 0.478c0.156 0.022 0.3 0.033 0.456 0.033s0.3-0.011 0.456-0.033l0.089-0.478 0.267 0.4c0.289-0.067 0.578-0.178 0.833-0.333l-0.089-0.456 0.411 0.256c0.244-0.178 0.456-0.389 0.644-0.622l-0.267-0.4 0.467 0.089c0.156-0.256 0.278-0.522 0.344-0.811l-0.456-0.256 0.489-0.089c0.022-0.144 0.033-0.289 0.033-0.444 0-0.144-0.011-0.3-0.033-0.444l-0.489-0.067zM12.383 16.756c-1.133-0.033-2.033-0.978-2-2.122s0.978-2.033 2.122-2c1.111 0.033 2 0.944 2 2.056-0.022 1.167-0.978 2.089-2.122 2.067z"></path>
<path d="M12.417 13.833c-0.533-0.011-0.978 0.422-0.989 0.956 0 0.522 0.411 0.944 0.933 0.956 0.533 0.011 0.978-0.4 0.989-0.933 0.011-0.522-0.4-0.967-0.933-0.978z"></path>
<path d="M9.528 12.244c0.744-0.778 1.778-1.222 2.856-1.222 2.122-0.033 3.867 1.667 3.889 3.778 0 0.144-0.011 0.289-0.033 0.422h0.833l0.033-0.933h1.378c-0.411 0.378-0.644 0.911-0.644 1.467 0.033 1.156 1 2.056 2.156 2.022 1.1-0.033 1.989-0.922 2.022-2.022 0-0.556-0.233-1.089-0.644-1.467h0.222l1.067-3.2h-3.233v-2.433h-1.1v2.456h-1.644l-1.333-4.789h-5.1v4.267l-1.478 0.822 0.611 0.933 0.144-0.1zM19.983 14.567c0.7 0.022 1.256 0.589 1.256 1.3-0.011 0.722-0.611 1.311-1.333 1.3 0 0 0 0 0 0v0c-0.711-0.022-1.278-0.622-1.256-1.333 0.022-0.722 0.622-1.289 1.333-1.267z"></path>
</svg>
