<!-- Generated by IcoMoon.io -->
<svg version="1.1" xmlns="http://www.w3.org/2000/svg" width="32" height="32" viewBox="0 0 32 32">
<title>md-rpm-warning</title>
<path d="M16 0c-8.867 0-16 7.133-16 16s7.2 16 16 16c8.867 0 16-7.2 16-16 0-8.867-7.133-16-16-16zM16 30.467c-8.067 0-14.467-6.4-14.467-14.467s6.4-14.467 14.467-14.467 14.467 6.4 14.467 14.467-6.4 14.467-14.467 14.467z"></path>
<path d="M16.733 14.4v-4.867h-1.533v4.867c-0.6 0.333-1.067 0.933-1.067 1.667 0 1 0.8 1.8 1.8 1.8s1.8-0.8 1.8-1.8c0.067-0.733-0.4-1.333-1-1.667z"></path>
<path d="M5.733 7.667l3.533 2.867c0.2-0.333 0.533-0.6 0.8-0.933l-3.067-3.333c-0.533 0.467-0.933 0.933-1.267 1.4z"></path>
<path d="M8.333 5.2l2.6 3.667c0.333-0.2 0.667-0.467 1.067-0.6l-2.133-4c-0.533 0.267-1.067 0.533-1.533 0.933z"></path>
<path d="M3.8 10.733l4.133 1.8c0.133-0.4 0.4-0.733 0.533-1.067l-3.8-2.333c-0.333 0.467-0.6 1.067-0.867 1.6z"></path>
<path d="M16 7.2c0.2 0 0.4 0 0.6 0l0.333-4.533c-0.333 0-0.6 0-0.8 0-0.333 0-0.6 0-1 0l0.333 4.533c0.067 0.067 0.333 0 0.533 0z"></path>
<path d="M13.267 3c-0.6 0.133-1.2 0.333-1.667 0.533l1.533 4.2c0.4-0.133 0.733-0.2 1.133-0.333l-1-4.4z"></path>
<path d="M2.867 14.2l0.333 0.067v0.067l3.467 0.467v-0.067l0.667 0.067c0.067-0.4 0.133-0.733 0.2-1.2l-4.267-1.133c-0.2 0.533-0.333 1.133-0.4 1.733z"></path>
<path d="M27.333 9.067l-3.8 2.333c0.2 0.4 0.4 0.667 0.533 1.067l4.133-1.8c-0.267-0.533-0.533-1.067-0.867-1.6z"></path>
<path d="M28.8 12.4l-4.333 1.2c0.067 0.4 0.2 0.733 0.2 1.2l4.4-0.6c0-0.667-0.133-1.267-0.267-1.8z"></path>
<path d="M22.067 4.2l-2 4c0.4 0.133 0.667 0.4 1.067 0.6l2.6-3.667c-0.6-0.333-1.133-0.6-1.667-0.933z"></path>
<path d="M18.6 3l-0.933 4.4c0.4 0.067 0.733 0.133 1.133 0.333l1.533-4.267c-0.533-0.133-1.133-0.333-1.733-0.467z"></path>
<path d="M25 6.333l-3.067 3.333c0.333 0.333 0.6 0.6 0.8 0.933l3.467-2.867c-0.267-0.6-0.733-1.067-1.2-1.4z"></path>
</svg>
