<!-- Generated by IcoMoon.io -->
<svg version="1.1" xmlns="http://www.w3.org/2000/svg" width="32" height="32" viewBox="0 0 32 32">
<title>ios-ask-me</title>
<path d="M16 20.324c2.837 0.066 5.211-2.177 5.277-5.080 0 0 0 0 0 0v-10.159c-0.132-2.903-2.573-5.211-5.475-5.080-2.771 0.132-4.948 2.309-5.080 5.080v10.159c0.066 2.903 2.375 5.146 5.277 5.080 0 0 0 0 0 0z"></path>
<path d="M16 25.469c-6.333 0-11.478-5.146-11.478-11.478 0-0.528 0.462-0.99 0.99-0.99s0.99 0.462 0.99 0.99c0 5.211 4.288 9.499 9.499 9.499s9.499-4.288 9.499-9.499c0-0.528 0.462-0.99 0.99-0.99s0.99 0.462 0.99 0.99c0 6.333-5.146 11.478-11.478 11.478z"></path>
<path d="M16 32c-0.528 0-0.99-0.462-0.99-0.99v-6.531c0-0.528 0.462-0.99 0.99-0.99s0.99 0.462 0.99 0.99v6.531c0 0.528-0.462 0.99-0.99 0.99z"></path>
</svg>
