<!-- Generated by IcoMoon.io -->
<svg version="1.1" xmlns="http://www.w3.org/2000/svg" width="32" height="32" viewBox="0 0 32 32">
<title>ios-engine</title>
<path d="M13.61 32c-4.861 0-8.83-3.97-8.83-8.83s3.97-8.83 8.83-8.83c4.861 0 8.83 3.97 8.83 8.83s-3.889 8.83-8.83 8.83zM13.61 15.959c-3.97 0-7.21 3.241-7.21 7.21s3.24 7.21 7.21 7.21c3.97 0 7.21-3.241 7.21-7.21s-3.16-7.21-7.21-7.21z"></path>
<path d="M22.927 21.306h1.458c0.405 0 0.81-0.324 0.81-0.81v-2.268h1.134v1.539c0 0.405 0.324 0.81 0.81 0.81h2.916c0 0 0 0 0 0 0.324 0 0.567-0.162 0.729-0.405 0.081-0.081 1.215-2.43 1.215-6.562 0-3.808-1.215-6.238-1.215-6.319-0.162-0.243-0.405-0.486-0.729-0.486h-2.835c-0.405 0-0.81 0.324-0.81 0.81v1.701h-1.134v-1.701c0-0.405-0.324-0.81-0.81-0.81h-1.782l-1.134-2.511c-0.162-0.405-0.405-0.567-0.729-0.567h-4.294v-2.106h2.268c0.405 0 0.81-0.324 0.81-0.81 0-0.405-0.324-0.81-0.81-0.81h-9.478c-0.405 0-0.81 0.324-0.81 0.81 0 0.405 0.324 0.81 0.81 0.81h2.754v2.025h-3.727c-0.324 0-0.567 0.162-0.729 0.405l-0.81 1.458h-0.567c-1.458 0-2.592 1.215-2.592 2.592v1.782h-1.863c-0.081 0-0.162 0-0.162 0v-4.294c0-0.405-0.324-0.81-0.81-0.81s-0.81 0.324-0.81 0.81v9.884c0 0.405 0.324 0.81 0.81 0.81s0.81-0.324 0.81-0.81v-4.051c0.081 0 0.162 0 0.162 0h1.863v3.889c0 1.215 0.81 2.268 1.944 2.592l0.729-1.539c-0.567 0-1.053-0.486-1.053-1.053v-7.21c0-0.567 0.486-1.053 1.053-1.053h1.053c0.324 0 0.567-0.162 0.729-0.405l0.81-1.458h11.504l1.134 2.511c0.162 0.324 0.405 0.486 0.729 0.486h1.458v1.701c0 0.405 0.324 0.81 0.81 0.81h2.754c0.405 0 0.81-0.324 0.81-0.81v-1.701h1.539c0.324 0.81 0.891 2.673 0.891 5.185 0 2.754-0.567 4.618-0.81 5.428h-1.62v-1.539c0-0.243-0.081-0.405-0.243-0.567s-0.324-0.243-0.567-0.243c0 0 0 0 0 0h-2.754c-0.405 0-0.81 0.324-0.81 0.81v2.268h-1.215zM14.906 3.727h-1.296v-2.106h1.296v2.106z"></path>
<path d="M17.58 26.815c-0.162 0-0.324-0.081-0.405-0.162l-4.294-3.16v-5.185c0-0.405 0.324-0.729 0.729-0.729s0.729 0.324 0.729 0.729v4.537l3.646 2.673c0.324 0.243 0.405 0.648 0.162 0.972-0.081 0.243-0.324 0.324-0.567 0.324z"></path>
</svg>
