<!-- Generated by IcoMoon.io -->
<svg version="1.1" xmlns="http://www.w3.org/2000/svg" width="64" height="32" viewBox="0 0 64 32">
<title>ios-onroad</title>
<path d="M40.333 16.867c-4 0-7.267 3.267-7.267 7.267s3.267 7.2 7.267 7.2 7.267-3.267 7.267-7.267-3.267-7.2-7.267-7.2zM40.333 29.533c-3 0-5.4-2.467-5.4-5.4s2.4-5.467 5.4-5.467 5.4 2.467 5.4 5.4-2.4 5.467-5.4 5.467z"></path>
<path d="M40.333 21.4c-1.467 0-2.733 1.2-2.733 2.733s1.2 2.733 2.733 2.733 2.733-1.2 2.733-2.733c0-1.533-1.267-2.733-2.733-2.733zM40.333 25c-0.467 0-0.933-0.4-0.933-0.933s0.4-0.933 0.933-0.933 0.933 0.4 0.933 0.933-0.4 0.933-0.933 0.933z"></path>
<path d="M62.2 21.867v-3.2c0-2-1.6-3.6-3.6-3.6h-1.8v-4.533c0-0.467 0.4-0.933 0.933-0.933v-1.8c-1.467 0-2.733 1.2-2.733 2.733v4.533h-4l-2.2-7.267h1.467v-1.8h-14.467v1.8h1.8v5.8c-1.533 0.4-3 1.133-4.2 2.133l1.133 1.4c1.6-1.333 3.667-2.067 5.733-2.067 5 0 9.067 4.067 9.067 9.067v2.733h3.8c0.467 2.533 2.667 4.533 5.333 4.533 3 0 5.4-2.467 5.4-5.4 0.133-1.667-0.533-3.133-1.667-4.133zM39.467 13.267v-5.467h7.467l2.2 7.267h-2.733c-1.733-1.133-3.8-1.8-6-1.8-0.333 0-0.667 0-0.933 0zM48.4 16.867h10.133c1 0 1.8 0.8 1.8 1.8v2.133c-0.6-0.2-1.2-0.333-1.8-0.333h-8c-0.4-1.333-1.133-2.533-2.133-3.6zM51.067 22.333h3.467c-0.667 0.733-1.133 1.667-1.333 2.733h-2v-0.933c0-0.667-0.067-1.267-0.133-1.8zM58.6 29.533c-2 0-3.6-1.6-3.6-3.6s1.6-3.6 3.6-3.6 3.6 1.6 3.6 3.6-1.6 3.6-3.6 3.6z"></path>
<path d="M59.467 25.933c0 0.467-0.4 0.933-0.933 0.933s-0.933-0.4-0.933-0.933 0.4-0.933 0.933-0.933c0.533 0 0.933 0.4 0.933 0.933z"></path>
<path d="M31.733 22.4c0.467 0 0.8-0.333 0.8-0.8v-5.133c0 0 0 0 0-0.067v-1.733c0-5.4-4.067-9.933-9.467-10.467-4.6-0.467-9.2-0.467-13.8 0-5.333 0.533-9.4 5.067-9.4 10.467v1.6c0 0 0 0 0 0.067v5.2c0 0.467 0.333 0.8 0.8 0.8h1.267v3.333h2.2c-0.133 0.533-0.2 1-0.2 1.467 0 2.333 1.867 4.2 4.2 4.2s4.2-1.867 4.2-4.2c0-0.467-0.067-0.933-0.2-1.4h8.133c-0.2 0.467-0.267 0.933-0.267 1.4 0 2.333 1.867 4.2 4.2 4.2s4.2-1.867 4.2-4.2c0-0.467-0.067-0.933-0.2-1.4h3.467c0.467 0 0.8-0.333 0.8-0.8s-0.333-0.8-0.8-0.8h-1.267v-1.733h1.333zM30.467 20.8h-8.267v-1h8.733v1h-0.467zM11.867 20.8v-1h8.733v1h-8.733zM1.467 17.2h8.733v1h-8.733v-1zM11.867 17.2h8.733v1h-8.733v-1zM30.867 17.2v1h-8.667v-1h8.667zM9.467 5.8c1.4-0.133 2.733-0.2 4.067-0.267l1 1.333c0.067 0.133 0.267 0.2 0.4 0.2 0.067 0 0.2 0 0.267-0.067 0.2-0.133 0.267-0.467 0.067-0.667l-0.533-0.8c2.733-0.067 5.467 0 8.133 0.333 1.733 0.133 3.2 0.8 4.467 1.733l-0.667 0.067c-0.267 0-0.467 0.267-0.4 0.533 0 0.267 0.2 0.4 0.467 0.4 0 0 0 0 0.067 0l1.6-0.2c1.6 1.6 2.533 3.8 2.533 6.267v0.867h-29.467v-0.867c0-0.933 0.133-1.8 0.4-2.6l1.467 0.467c0.067 0 0.067 0 0.133 0 0.2 0 0.4-0.133 0.467-0.333 0.067-0.267-0.067-0.533-0.333-0.6l-1.467-0.467c1.333-2.867 4-5 7.333-5.333zM1.467 20.8v-1h8.733v1h-8.733zM10.733 27.2c0 1.467-1.2 2.6-2.6 2.6s-2.6-1.133-2.6-2.6c0-1.467 1.2-2.6 2.6-2.6s2.6 1.133 2.6 2.6zM26.867 27.2c0 1.467-1.2 2.6-2.6 2.6s-2.6-1.133-2.6-2.6c0-1.467 1.2-2.6 2.6-2.6s2.6 1.133 2.6 2.6zM28.8 24.133h-1.6c-0.733-0.733-1.8-1.2-2.933-1.2s-2.2 0.467-2.933 1.2h-10.267c-0.733-0.733-1.8-1.2-2.933-1.2s-2.2 0.467-2.933 1.2h-1.667v-1.733h25.267c0 0 0 1.733 0 1.733z"></path>
<path d="M7.133 9.733c0.067 0 0.133 0 0.2 0l2-0.867c0.267-0.067 0.333-0.4 0.267-0.667s-0.4-0.333-0.667-0.267l-2 0.867c-0.267 0.067-0.333 0.4-0.267 0.667 0.067 0.133 0.267 0.267 0.467 0.267z"></path>
<path d="M24.533 14.2c0.067 0.133 0.2 0.2 0.4 0.2 0.067 0 0.2 0 0.267-0.067 0.2-0.133 0.267-0.467 0.067-0.667l-1.333-1.733c-0.133-0.2-0.467-0.267-0.667-0.067-0.2 0.133-0.267 0.467-0.067 0.667l1.333 1.667z"></path>
<path d="M17.2 13c0.133 0 0.267-0.067 0.333-0.133l1.467-1.6c0.2-0.2 0.133-0.533 0-0.667-0.2-0.2-0.533-0.133-0.667 0l-1.467 1.6c-0.2 0.2-0.133 0.533 0 0.667s0.2 0.133 0.333 0.133z"></path>
<path d="M8.2 13.8c0 0.267 0.133 0.533 0.4 0.533l2.133 0.333c0 0 0.067 0 0.067 0 0.2 0 0.467-0.133 0.467-0.4s-0.133-0.533-0.4-0.533l-2.133-0.4c-0.267 0-0.533 0.2-0.533 0.467z"></path>
</svg>
