<!-- Generated by IcoMoon.io -->
<svg version="1.1" xmlns="http://www.w3.org/2000/svg" width="32" height="32" viewBox="0 0 32 32">
<title>ios-satellite</title>
<path d="M25.813 15.072c-0.082-0.082-0.194-0.132-0.319-0.132s-0.237 0.050-0.319 0.132l-1.384 1.383-1.571-1.57 4.121-4.122c0.198-0.195 0.321-0.467 0.321-0.767 0-0 0-0 0-0v0c0-0.289-0.116-0.565-0.321-0.768l-3.585-3.585c-0.424-0.423-1.111-0.423-1.535 0l-4.121 4.121-1.62-1.619 1.383-1.383c0.082-0.082 0.132-0.194 0.132-0.319s-0.050-0.237-0.132-0.319l-6.055-6.055c-0.082-0.082-0.194-0.132-0.319-0.132s-0.237 0.050-0.319 0.132l-3.824 3.824c-0.082 0.082-0.132 0.194-0.132 0.319v0c0 0.119 0.048 0.234 0.132 0.319l6.055 6.055c0.082 0.082 0.194 0.132 0.319 0.132v0c0.124-0 0.237-0.051 0.319-0.132v0l1.675-1.674 1.619 1.619-2.586 2.586c2.526 0.63 4.489 2.618 5.087 5.153l2.619-2.619 0.002 0.003 1.569 1.568-1.675 1.675c-0.082 0.082-0.132 0.194-0.132 0.319v0c0 0.119 0.048 0.234 0.132 0.319l6.055 6.055c0.082 0.082 0.194 0.132 0.319 0.132s0.237-0.050 0.319-0.132l3.824-3.824c0.082-0.082 0.132-0.194 0.132-0.319s-0.050-0.237-0.132-0.319v0zM16.217 15.72c-0.888-0.891-2.061-1.496-3.371-1.667l-0.029-0.003c-0.222-0.031-0.477-0.049-0.738-0.049v0c-0.001 0-0.002 0-0.003 0-1.443 0-2.764 0.521-3.785 1.385l0.009-0.007c-0.095 0.080-0.156 0.197-0.163 0.328l-0 0.001c-0 0.007-0.001 0.014-0.001 0.022 0 0.125 0.050 0.239 0.131 0.321l7.62 7.62c0.083 0.081 0.196 0.131 0.321 0.131 0.008 0 0.015-0 0.023-0.001l-0.001 0c0.132-0.007 0.249-0.068 0.329-0.162l0.001-0.001c0.857-1.013 1.378-2.334 1.378-3.777 0-0.001 0-0.002 0-0.004v0c0-0.007 0-0.015 0-0.024 0-0.221-0.014-0.439-0.041-0.653l0.003 0.025c-0.155-1.373-0.769-2.581-1.681-3.487l-0-0zM11.932 30.853c-5.988-0.007-10.841-4.859-10.847-10.848 0-0.299-0.243-0.542-0.542-0.542s-0.542 0.243-0.542 0.543v0c0.007 6.587 5.345 11.925 11.932 11.932 0.3 0 0.543-0.243 0.543-0.543v0c0-0.3-0.243-0.542-0.543-0.542z"></path>
<path d="M11.932 27.598c-4.192-0.005-7.588-3.401-7.593-7.593 0-0.3-0.243-0.543-0.542-0.543s-0.542 0.243-0.542 0.543v0c0.006 4.79 3.888 8.672 8.678 8.678 0.3 0 0.543-0.243 0.543-0.543s-0.243-0.543-0.543-0.543v0z"></path>
<path d="M11.932 24.344c-2.395-0.003-4.336-1.944-4.339-4.339 0-0.3-0.243-0.543-0.543-0.543s-0.542 0.243-0.542 0.543c0.003 2.994 2.43 5.42 5.424 5.424 0.3 0 0.543-0.243 0.543-0.542s-0.243-0.543-0.543-0.543z"></path>
</svg>
