<svg xmlns="http://www.w3.org/2000/svg" width="36" height="51">
    <path fill="#FFF" fill-rule="evenodd" d="M34.665 31.888c-3.062 4.887-8.406 8.158-14.349 8.922v4.584h3.616c1.479 0 2.677 1.108 2.677 2.476 0 1.368-1.198 2.477-2.677 2.477H11.346c-1.478 0-2.678-1.109-2.678-2.477 0-1.368 1.2-2.476 2.678-2.476h3.616V40.81C9.021 40.046 3.675 36.775.615 31.888c-.741-1.184-.306-2.698.975-3.384 1.276-.683 2.916-.282 3.656.901 2.563 4.089 7.311 6.629 12.392 6.629 5.085 0 9.833-2.54 12.393-6.629.745-1.183 2.386-1.584 3.659-.901 1.28.686 1.716 2.2.975 3.384zm-17.027 1.257c-6.199 0-11.227-4.65-11.227-10.386V10.38c0-3.943 2.376-7.373 5.874-9.132l.002 5.624c0 .912.8 1.652 1.784 1.652.987 0 1.785-.74 1.785-1.652L15.854.137a12.072 12.072 0 0 1 1.784-.144c.611 0 1.204.057 1.786.144l.002 6.736c0 .911.799 1.651 1.783 1.651.988 0 1.786-.74 1.786-1.651l-.002-5.624c3.5 1.758 5.874 5.188 5.874 9.131v12.379c0 5.736-5.026 10.386-11.229 10.386z"/>
</svg>
