<svg xmlns="http://www.w3.org/2000/svg" width="35.531" height="28.69" viewBox="0 0 35.531 28.69">
  <metadata><?xpacket begin="﻿" id="W5M0MpCehiHzreSzNTczkc9d"?>
<x:xmpmeta xmlns:x="adobe:ns:meta/" x:xmptk="Adobe XMP Core 5.6-c138 79.159824, 2016/09/14-01:09:01        ">
   <rdf:RDF xmlns:rdf="http://www.w3.org/1999/02/22-rdf-syntax-ns#">
      <rdf:Description rdf:about=""/>
   </rdf:RDF>
</x:xmpmeta>
                                                                                                    
                                                                                                    
                                                                                                    
                                                                                                    
                                                                                                    
                                                                                                    
                                                                                                    
                                                                                                    
                                                                                                    
                                                                                                    
                                                                                                    
                                                                                                    
                                                                                                    
                                                                                                    
                                                                                                    
                                                                                                    
                                                                                                    
                                                                                                    
                                                                                                    
                                                                                                    
                           
<?xpacket end="w"?></metadata>
<defs>
    <style>
      .cls-1 {
        fill-rule: evenodd;
      }
    </style>
  </defs>
  <path id="_-e-Shape_24" data-name="-e-Shape 24" class="cls-1" d="M136.688,1199.89l-16.147-8.75a1.579,1.579,0,0,0-1.547,0l-16.146,8.75a1.6,1.6,0,0,0-.841,1.41v2.26a1.612,1.612,0,0,0,1.614,1.61h1.615v12.84a1.6,1.6,0,0,0,1.615,1.6h3.229v-12.84h19.376v12.84h3.229a1.6,1.6,0,0,0,1.615-1.6v-12.84h1.614a1.612,1.612,0,0,0,1.615-1.61v-2.26A1.6,1.6,0,0,0,136.688,1199.89Zm-23.379,13.3h12.917v-3.21H113.309v3.21Zm0,6.42h12.917v-3.21H113.309v3.21Z" transform="translate(-102 -1190.94)"/>
</svg>
