<!-- Generated by IcoMoon.io -->
<svg version="1.1" xmlns="http://www.w3.org/2000/svg" width="32" height="32" viewBox="0 0 32 32">
<title>ios-geofence</title>
<path d="M3.556 17.138c-1.92 0-3.556-1.564-3.556-3.556 0-1.92 1.564-3.556 3.556-3.556s3.556 1.564 3.556 3.556c0 1.991-1.636 3.556-3.556 3.556zM3.556 11.804c-0.996 0-1.778 0.782-1.778 1.778s0.782 1.778 1.778 1.778 1.778-0.782 1.778-1.778-0.853-1.778-1.778-1.778z"></path>
<path d="M17.493 7.111c-1.92 0-3.556-1.564-3.556-3.556 0-1.92 1.564-3.556 3.556-3.556 1.92 0 3.556 1.564 3.556 3.556s-1.636 3.556-3.556 3.556zM17.493 1.778c-0.996 0-1.778 0.782-1.778 1.778s0.782 1.778 1.778 1.778 1.778-0.782 1.778-1.778-0.782-1.778-1.778-1.778z"></path>
<path d="M28.444 15.787c-1.92 0-3.556-1.564-3.556-3.556 0-1.92 1.564-3.556 3.556-3.556 1.92 0 3.556 1.564 3.556 3.556s-1.564 3.556-3.556 3.556zM28.444 10.524c-0.996 0-1.778 0.782-1.778 1.778s0.782 1.778 1.778 1.778 1.778-0.782 1.778-1.778-0.782-1.778-1.778-1.778z"></path>
<path d="M22.613 32c-1.92 0-3.556-1.564-3.556-3.556 0-1.92 1.564-3.556 3.556-3.556 1.92 0 3.556 1.564 3.556 3.556 0 1.92-1.564 3.556-3.556 3.556zM22.613 26.667c-0.996 0-1.778 0.782-1.778 1.778s0.853 1.778 1.778 1.778c0.996 0 1.778-0.782 1.778-1.778s-0.782-1.778-1.778-1.778z"></path>
<path d="M22.731 25.629l4.027-11.171 1.672 0.603-4.027 11.171-1.672-0.603z"></path>
<path d="M19.021 5.884l1.104-1.394 6.802 5.386-1.104 1.394-6.802-5.386z"></path>
<path d="M5.144 11.328l9.644-6.931 1.037 1.444-9.644 6.931-1.037-1.444z"></path>
<path d="M5.054 15.922l1.090-1.404 14.998 11.643-1.090 1.404-14.998-11.643z"></path>
</svg>
