<!-- Generated by IcoMoon.io -->
<svg version="1.1" xmlns="http://www.w3.org/2000/svg" width="32" height="32" viewBox="0 0 32 32">
<title>high-engine-temp</title>
<path d="M17.467 28.333c-0.867 0-1.667-0.267-2.333-0.867-0.867-0.733-1.4-1.8-1.4-2.933 0-0.067 0-0.133 0-0.133v-0.333h-1.6c-0.467 0-0.933-0.2-1.267-0.467l-1.933-1.667c-0.133-0.067-0.267-0.133-0.4-0.133h-2.533c-1.067 0-1.933-0.867-1.933-1.933v-4.267h-2.4v4.6h-1.333v-10.533h1.333v4.6h2.4v-2.733c0-1.067 0.867-1.933 1.933-1.933h1.733c0.2 0 0.467-0.133 0.533-0.333l1.067-1.933c0.333-0.6 1-1 1.733-1h1.467v1.333h-1.467c-0.2 0-0.467 0.133-0.533 0.333l-1.067 1.867c-0.333 0.6-1 1-1.733 1h-1.733c-0.333 0-0.6 0.267-0.6 0.6v8.333c0 0.333 0.267 0.6 0.6 0.6h2.533c0.467 0 0.933 0.2 1.267 0.467l1.933 1.667c0.133 0.067 0.267 0.133 0.4 0.133h2.067l0.067-0.133c0.067-0.133 0.2-0.333 0.333-0.467l0.067-0.067v-7.867c0-1.467 1.2-2.6 2.6-2.6 1.467 0 2.6 1.2 2.6 2.6v7.667l0.067 0.067c0.2 0.2 0.333 0.4 0.533 0.667l0.067 0.133h2.4v-3.533c0-0.733 0.6-1.333 1.333-1.333h1.8c0.733 0 1.333 0.6 1.333 1.333v2h2.8v-9.4h-2.867v2c0 0.733-0.6 1.333-1.333 1.333h-1.867c-0.733 0-1.333-0.6-1.333-1.333v-3.133h-2.667c-0.467 0-0.867-0.267-1.133-0.667l-1.333-2.267h-1.067v-1.333h1.067c0.467 0 0.867 0.267 1.133 0.667l1.333 2.267h2.667c0.733 0 1.333 0.6 1.333 1.333v3.133h1.867v-2c0-0.733 0.6-1.333 1.333-1.333h3c0.733 0 1.333 0.6 1.333 1.333v9.467c0 0.733-0.6 1.333-1.333 1.333h-2.8c-0.733 0-1.333-0.6-1.333-1.333v-2h-1.733v3.533c0 0.733-0.6 1.333-1.333 1.333h-2v0.333c0 0.267 0 0.6-0.067 0.867-0.267 1.467-1.4 2.667-2.867 2.933-0.2 0.067-0.467 0.133-0.733 0.133zM15.867 22.8c-0.533 0.467-0.8 1.067-0.8 1.8s0.333 1.4 0.867 1.867c0.4 0.333 0.933 0.533 1.533 0.533 0.2 0 0.333 0 0.533-0.067 0.933-0.2 1.667-1 1.867-1.867 0.2-0.933-0.2-1.8-0.933-2.333l-0.267-0.267v-8.333c0-0.733-0.6-1.267-1.267-1.267s-1.267 0.6-1.267 1.267v8.467l-0.267 0.2z"></path>
<path d="M13.133 10.467v-1.333h0.667v-4.133h-3.533v-1.333h8.467v1.333h-3.6v4.133h0.8v1.333z"></path>
<path d="M18.4 24.6c0 0.552-0.448 1-1 1s-1-0.448-1-1c0-0.552 0.448-1 1-1s1 0.448 1 1z"></path>
</svg>
