<!-- Generated by IcoMoon.io -->
<svg version="1.1" xmlns="http://www.w3.org/2000/svg" width="32" height="32" viewBox="0 0 32 32">
<title>md-not-charging</title>
<path d="M30.005 9.164h-2.734v-1.035h2.365v-1.182h-9.312v1.182h1.921v1.035h-12.785v-1.035h2.365v-1.182h-9.312v1.182h1.921v1.035h-2.439c-1.109 0-1.995 0.887-1.995 1.995v11.898c0 1.109 0.887 1.995 1.995 1.995h28.009c1.109 0 1.995-0.887 1.995-1.995v-11.898c0-1.109-0.887-1.995-1.995-1.995zM23.427 8.129h2.66v1.035h-2.66v-1.035zM5.617 8.129h2.66v1.035h-2.66v-1.035zM30.818 23.132c0 0.443-0.369 0.887-0.887 0.887h-28.009c-0.443 0-0.887-0.369-0.887-0.887v-11.972c0-0.443 0.369-0.887 0.887-0.887h28.009c0.443 0 0.887 0.37 0.887 0.887 0 0 0 11.972 0 11.972z"></path>
<path d="M7.538 13.45h-1.182v2.217h-2.217v1.182h2.217v2.143h1.182v-2.143h2.143v-1.182h-2.143z"></path>
<path d="M22.245 15.667h5.543v1.182h-5.543v-1.182z"></path>
</svg>
