<!-- Generated by IcoMoon.io -->
<svg version="1.1" xmlns="http://www.w3.org/2000/svg" width="32" height="32" viewBox="0 0 32 32">
<title>md-tow-alert</title>
<path d="M30.852 29.467l-25.8-29.467-2.133 11.4c-1.2 0.8-1.933 2.067-1.933 3.533s0.867 2.8 2.067 3.6v0c0.4 0.267 0.8 0.533 1.067 0.8-0.6-0.133-1.133-0.2-1.6-0.067-0.8 0.267-0.933 0.467-1.333 1-0.8 1.2-0.533 2.6 0 3.4 1 1.467 2.533 2.333 4.333 2.4 0 0 0.133 0 0.333 0 0.533 0 1.667-0.067 2.6-0.867s1.467-1.867 1.667-3.467c0.133-1.333-0.267-2.067-1.533-4.133 0.4-0.467 0.733-1 0.867-1.533l6.667 15c0.267 0.533 0.8 0.933 1.4 0.933h2.667c0.533 0 1-0.333 1.333-0.8s0.333-1 0.067-1.533l-4-7.733 8.133 9.467c0.333 0.333 0.733 0.6 1.2 0.6h2.933c0.6 0 1.267-0.267 1.467-0.933-0.067-0.533-0.133-1.133-0.467-1.6zM2.519 14.933c0-1.4 1.2-2.6 2.6-2.6s2.6 1.2 2.6 2.6-1.067 2.667-2.533 2.667-2.667-1.2-2.667-2.667zM8.386 21.667c-0.067 1.067-0.467 1.867-1 2.333-0.8 0.667-1.733 0.6-1.867 0.6-1.333-0.067-2.333-0.733-3.133-1.8-0.133-0.133-0.533-0.867 0-1.533l0.067-0.067c0 0 0.067-0.133 0.4-0.267 0.4-0.2 1.067-0.067 1.733 0.333 0.133 0.133 0.467 0.333 0.867 0.267 0.333 0 0.6-0.267 0.8-0.467 0.267-0.333 0.333-0.667 0.267-1.067-0.133-0.267-0.267-0.667-0.6-1 0.4-0.067 0.8-0.267 1.067-0.4 1.333 2 1.467 2.4 1.4 3.067zM9.719 10.933l10.2 19.667h-2.667l-10.533-23.867-0.533 4.2c-0.333-0.067-0.6-0.133-1-0.133-0.133 0-0.4 0-0.533 0.067l1.333-7.4 23.533 27.133h-2.933l-16.867-19.667z"></path>
<path d="M6.386 14.933c0 0.663-0.537 1.2-1.2 1.2s-1.2-0.537-1.2-1.2c0-0.663 0.537-1.2 1.2-1.2s1.2 0.537 1.2 1.2z"></path>
</svg>
