<!-- Generated by IcoMoon.io -->
<svg version="1.1" xmlns="http://www.w3.org/2000/svg" width="32" height="32" viewBox="0 0 32 32">
<title>md-without-key</title>
<path d="M13.186 27.788c-6.46 0-11.788-5.261-11.788-11.788s5.328-11.721 11.788-11.721c5.261 0 9.923 3.53 11.322 8.658l1.465-0.4c-1.598-5.727-6.793-9.79-12.853-9.79-7.259 0-13.12 5.927-13.12 13.253s5.927 13.253 13.253 13.253c1.199 0 2.331-0.133 3.463-0.466l-0.466-1.532c-0.932 0.4-1.998 0.533-3.063 0.533z"></path>
<path d="M31.834 24.857l-5.461-9.257c-0.333-0.466-0.733-0.733-1.332-0.733s-1.066 0.333-1.332 0.733l-5.461 9.257c-0.333 0.466-0.333 1.066 0 1.598s0.733 0.733 1.332 0.733h10.855c0.533 0 1.066-0.333 1.332-0.733 0.333-0.466 0.266-1.066 0.067-1.598zM25.041 16.333l5.461 9.257-0.067 0.067h-10.989c0 0 0 0 0-0.067l5.461-9.257h0.133z"></path>
<path d="M24.308 19.263h1.532v3.396h-1.532v-3.396z"></path>
<path d="M24.308 23.259h1.532v1.532h-1.532v-1.532z"></path>
<path d="M7.659 14.801c-0.466 0-0.733 0.333-0.733 0.733 0 0.466 0.333 0.733 0.733 0.733h10.789c0.466 0 0.733-0.333 0.733-0.733 0-0.466-0.333-0.733-0.733-0.733h-10.789z"></path>
</svg>
