<!-- Generated by IcoMoon.io -->
<svg version="1.1" xmlns="http://www.w3.org/2000/svg" width="32" height="32" viewBox="0 0 32 32">
<title>md-low-fuel-alert</title>
<path d="M31.233 9.8v-2c0-0.333-0.267-0.733-0.533-0.933l-3.667-2.467c-0.333-0.133-0.733-0.067-0.933 0.267l-0.267 0.467c-0.2 0.333-0.067 0.8 0.2 1l0.667 0.4c0.667 0.4 1.067 1.067 1.133 1.867 0.067 0.867 0.4 2.067 1.933 2.467v12.733c0 0.4-0.267 0.733-0.733 0.733h-0.733c-0.4 0-0.733-0.267-0.733-0.733v-8.6c0-2.533-1.933-4.6-4.333-4.933v-6.2c0.067-2.133-1.667-3.867-3.8-3.867h-12c-2.133 0-3.933 1.733-3.933 3.867v22.133c-1.533 0.067-2.733 1.333-2.733 2.8v3.2h25.2v-3.2c0-1.467-1.133-2.667-2.6-2.8v-14.533c1.6 0.333 2.867 1.733 2.867 3.533v8.6c0 1.2 0.933 2.133 2.133 2.133h0.733c1.2 0 2.133-0.933 2.133-2.133v-13.8zM24.5 28.8v1.733h-22.333v-1.733c0-0.8 0.667-1.4 1.4-1.4h1.333v-23.533c0-1.333 1.133-2.467 2.467-2.467h12.067c1.333 0 2.467 1.133 2.467 2.467v23.533h1.133c0.8-0.067 1.467 0.6 1.467 1.4z"></path>
<path d="M7.767 14.6h11.067v-9.4h-11.067v9.4zM9.167 6.667h8.267v6.6h-8.267v-6.6z"></path>
</svg>
