<!-- Generated by IcoMoon.io -->
<svg version="1.1" xmlns="http://www.w3.org/2000/svg" width="32" height="32" viewBox="0 0 32 32">
<title>ios-diesel-level</title>
<path d="M6.181 22.685c0 0-0.066 0 0 0-0.464 0-0.796-0.199-1.062-0.464v0l-2.986-3.384c-0.73-0.796-0.664-2.057 0.066-2.853l8.825-9.223c0.597-0.597 1.327-0.929 2.19-0.929 0 0 0 0 0 0 0.863 0 1.659 0.332 2.19 0.995l5.109 5.507c1.062 1.128 1.062 2.853 0 3.981l-4.446 4.844-3.45-3.583c-0.133-0.133-0.398-0.133-0.531 0l-4.91 4.711c-0.265 0.265-0.664 0.398-0.995 0.398zM6.115 21.291c0 0 0.066 0.066 0.066 0 0 0 0.066 0 0.066 0l4.91-4.711c0.664-0.664 1.792-0.664 2.455 0.066l2.455 2.521 3.517-3.849c0.597-0.597 0.597-1.592 0-2.19l-5.109-5.441c-0.332-0.332-0.796-0.531-1.261-0.531s-0.929 0.199-1.261 0.531l-8.825 9.157c-0.265 0.265-0.265 0.73 0 1.062l2.986 3.384z"></path>
<path d="M18.191 11.338c-0.199 0-0.332-0.066-0.464-0.199l-2.389-2.588c-0.133-0.133-0.199-0.398-0.199-0.597 0.066-0.199 0.199-0.398 0.332-0.464l5.109-2.455c1.725-0.863 3.649-1.128 5.574-0.863l4.578 0.597c0.199 0 0.332 0.133 0.464 0.265s0.133 0.332 0.066 0.531l-0.796 2.986c-0.066 0.332-0.398 0.531-0.664 0.464l-4.313-0.265c-1.194-0.066-2.389 0.133-3.45 0.73l-3.583 1.792c-0.066 0.066-0.199 0.066-0.265 0.066zM16.864 8.352l1.46 1.592 3.119-1.592c1.261-0.664 2.721-0.929 4.114-0.863l3.782 0.199 0.464-1.725-3.849-0.531c-1.659-0.199-3.318 0.066-4.777 0.796l-4.313 2.123z"></path>
<path d="M11.888 23.083c-2.521 0-4.379-1.991-4.446-2.057-0.265-0.265-0.199-0.664 0.066-0.929s0.664-0.199 0.929 0.066v0c0 0 1.526 1.659 3.517 1.659 1.261 0 2.455-0.73 3.517-2.057 0.265-0.265 0.664-0.332 0.929-0.066s0.332 0.664 0.066 0.929c-1.393 1.659-2.92 2.455-4.578 2.521 0.066-0.066 0.066-0.066 0-0.066z"></path>
<path d="M12.352 20.827c-0.398 0-0.664-0.265-0.664-0.664v-3.384c0-0.398 0.265-0.664 0.664-0.664s0.664 0.265 0.664 0.664v3.384c0 0.398-0.265 0.664-0.664 0.664z"></path>
<path d="M3.593 27.927c-0.332 0-0.664-0.265-0.664-0.597-0.199-3.517 2.057-5.972 2.19-6.038 0.265-0.265 0.664-0.265 0.929 0s0.265 0.664 0 0.929c0 0.066-1.991 2.123-1.792 5.043 0 0.332-0.265 0.664-0.664 0.664 0.066 0 0 0 0 0z"></path>
<path d="M0.674 26.732c-0.332 0-0.664-0.265-0.664-0.597-0.199-3.782 2.588-7.299 2.721-7.432 0.199-0.265 0.664-0.332 0.929-0.066 0.265 0.199 0.332 0.664 0.066 0.929 0 0-2.588 3.251-2.389 6.503 0.066 0.332-0.265 0.664-0.664 0.664 0.066 0 0.066 0 0 0z"></path>
<path d="M28.277 25.936v0c-2.123-0.066-3.782-1.858-3.782-3.915 0.066-0.664 0.199-1.327 0.531-1.924 0.265-0.531 0.597-1.128 0.929-1.659 0.664-0.995 1.327-1.792 1.393-1.858 0.199-0.265 0.597-0.464 0.929-0.464s0.664 0.199 0.863 0.464c0 0 0.664 0.863 1.327 1.858 0.332 0.531 0.664 1.062 0.995 1.659 0.332 0.531 0.464 1.194 0.531 1.858 0.133 2.123-1.593 3.915-3.716 3.981v0zM28.277 17.509c-0.199 0.265-0.73 0.929-1.194 1.593-0.332 0.464-0.597 0.995-0.863 1.526-0.265 0.398-0.332 0.863-0.398 1.327 0 1.393 1.062 2.521 2.455 2.588 1.393-0.066 2.455-1.194 2.455-2.588 0-0.464-0.133-0.863-0.398-1.261-0.265-0.531-0.597-1.062-0.863-1.526-0.464-0.73-0.995-1.327-1.194-1.659zM28.144 17.376c0 0 0 0 0 0s0 0 0 0zM28.41 17.376c0 0 0 0 0 0s0 0 0 0z"></path>
</svg>
