<svg xmlns="http://www.w3.org/2000/svg" width="24.031" height="35" viewBox="0 0 24.031 35">
  <metadata><?xpacket begin="﻿" id="W5M0MpCehiHzreSzNTczkc9d"?>
<x:xmpmeta xmlns:x="adobe:ns:meta/" x:xmptk="Adobe XMP Core 5.6-c138 79.159824, 2016/09/14-01:09:01        ">
   <rdf:RDF xmlns:rdf="http://www.w3.org/1999/02/22-rdf-syntax-ns#">
      <rdf:Description rdf:about=""/>
   </rdf:RDF>
</x:xmpmeta>
                                                                                                    
                                                                                                    
                                                                                                    
                                                                                                    
                                                                                                    
                                                                                                    
                                                                                                    
                                                                                                    
                                                                                                    
                                                                                                    
                                                                                                    
                                                                                                    
                                                                                                    
                                                                                                    
                                                                                                    
                                                                                                    
                                                                                                    
                                                                                                    
                                                                                                    
                                                                                                    
                           
<?xpacket end="w"?></metadata>
<defs>
    <style>
      .cls-1 {
        fill-rule: evenodd;
      }
    </style>
  </defs>
  <path id="_-e-Forma_1_copy_3" data-name="-e-Forma 1 copy 3" class="cls-1" d="M611.082,1208.81a1.927,1.927,0,0,0-2.526.63,10.26,10.26,0,0,1-17.115,0,1.924,1.924,0,0,0-2.525-.63,1.656,1.656,0,0,0-.673,2.35,13.7,13.7,0,0,0,9.906,6.2v3.19h-2.5a1.725,1.725,0,1,0,0,3.44h8.691a1.724,1.724,0,1,0,0-3.44h-2.5v-3.19a13.708,13.708,0,0,0,9.908-6.2A1.656,1.656,0,0,0,611.082,1208.81ZM600,1212.04a7.506,7.506,0,0,0,7.754-7.22v-8.61a7.15,7.15,0,0,0-4.057-6.34v3.91a1.236,1.236,0,0,1-2.464,0v-4.68a7.645,7.645,0,0,0-2.465,0v4.68a1.236,1.236,0,0,1-2.465,0v-3.91a7.152,7.152,0,0,0-4.056,6.34v8.61A7.506,7.506,0,0,0,600,1212.04Z" transform="translate(-588 -1189)"/>
</svg>
