<!-- Generated by IcoMoon.io -->
<svg version="1.1" xmlns="http://www.w3.org/2000/svg" width="32" height="32" viewBox="0 0 32 32">
<title>md-geofence-alert</title>
<path d="M3.2 23.198l-1.133 0.667c0.8 1.467 1.867 2.733 3.067 3.867l0.933-1c-1.133-1-2.133-2.2-2.867-3.533z"></path>
<path d="M1.4 15.065l-1.4-0.067c0 0.333 0 0.667 0 1 0 1.267 0.133 2.667 0.467 3.867l1.267-0.333c-0.267-1.133-0.4-2.4-0.4-3.533-0.067-0.333-0.067-0.667 0.067-0.933z"></path>
<path d="M19.333 1.731l0.333-1.267c-1.667-0.4-3.267-0.467-5-0.333l0.133 1.4c1.467-0.333 3.067-0.133 4.533 0.2z"></path>
<path d="M31.733 13.065c-0.267-1.667-0.867-3.2-1.667-4.733l-1.2 0.667c0.733 1.4 1.2 2.8 1.533 4.333l1.333-0.267z"></path>
<path d="M10.533 0.865c-1.6 0.533-3 1.4-4.4 2.4l0.8 1.067c1.2-0.933 2.533-1.733 3.933-2.2l-0.333-1.267z"></path>
<path d="M4.267 7.198l-1.133-0.867c-1 1.4-1.8 2.8-2.333 4.4l1.267 0.467c0.533-1.4 1.267-2.8 2.2-4z"></path>
<path d="M30.6 15.998c0 1.533-0.2 3.067-0.667 4.533l1.267 0.4c0.533-1.6 0.8-3.2 0.8-4.933 0 0-1.4 0-1.4 0z"></path>
<path d="M8.6 30.198c1.533 0.733 3.067 1.267 4.733 1.6l0.2-1.4c-1.533-0.267-2.933-0.733-4.333-1.467l-0.6 1.267z"></path>
<path d="M27.6 4.931c-1.133-1.2-2.467-2.267-3.933-3l-0.667 1.2c1.4 0.733 2.533 1.667 3.6 2.8l1-1z"></path>
<path d="M17.467 30.531l0.133 1.4c1.667-0.133 3.267-0.6 4.8-1.2l-0.533-1.2c-1.4 0.467-2.867 0.867-4.4 1z"></path>
<path d="M25.2 27.331l0.867 1.067c1.267-1 2.4-2.333 3.333-3.667l-1.067-0.733c-0.933 1.333-1.933 2.4-3.133 3.333z"></path>
<path d="M21.133 14.264c0-2.8-2.267-5.067-5.067-5.067s-5.067 2.267-5.067 5.067c0 1.467 0.667 2.333 1.467 3.4l0.133 0.2 3.067 4.133c0.067 0.133 0.267 0.2 0.4 0.2v0c0.133 0 0.333-0.067 0.4-0.2l3.267-4.4c0.933-1.067 1.4-1.933 1.4-3.333zM16.133 20.864l-2.667-3.533-0.133-0.267c-0.733-1-1.2-1.8-1.2-2.867 0-2.2 1.8-4.067 4.067-4.067 2.2 0 4.067 1.8 4.067 4.067 0 1-0.333 1.667-1.133 2.8l-3 3.867z"></path>
<path d="M16.133 11.531c-1.4 0-2.467 1.067-2.467 2.467s1.067 2.467 2.467 2.467 2.467-1.067 2.467-2.467-1.067-2.467-2.467-2.467zM16.133 15.464c-0.8 0-1.467-0.667-1.467-1.467s0.667-1.467 1.467-1.467c0.8 0 1.467 0.667 1.467 1.467s-0.733 1.467-1.467 1.467z"></path>
</svg>
