<svg xmlns="http://www.w3.org/2000/svg" width="34" height="34" viewBox="0 0 34 34">
  <metadata><?xpacket begin="﻿" id="W5M0MpCehiHzreSzNTczkc9d"?>
<x:xmpmeta xmlns:x="adobe:ns:meta/" x:xmptk="Adobe XMP Core 5.6-c138 79.159824, 2016/09/14-01:09:01        ">
   <rdf:RDF xmlns:rdf="http://www.w3.org/1999/02/22-rdf-syntax-ns#">
      <rdf:Description rdf:about=""/>
   </rdf:RDF>
</x:xmpmeta>
                                                                                                    
                                                                                                    
                                                                                                    
                                                                                                    
                                                                                                    
                                                                                                    
                                                                                                    
                                                                                                    
                                                                                                    
                                                                                                    
                                                                                                    
                                                                                                    
                                                                                                    
                                                                                                    
                                                                                                    
                                                                                                    
                                                                                                    
                                                                                                    
                                                                                                    
                                                                                                    
                           
<?xpacket end="w"?></metadata>
<defs>
    <style>
      .cls-1 {
        fill-rule: evenodd;
      }
    </style>
  </defs>
  <path id="_-e-Ellipse_4_copy" data-name="-e-Ellipse 4 copy" class="cls-1" d="M361.7,1188.01v5.12a11.765,11.765,0,0,1,9.347,16.05l4.418,2.56a15.659,15.659,0,0,0,1.529-7A16.832,16.832,0,0,0,361.7,1188.01Zm-1.7,28.86a11.934,11.934,0,0,1-1.7-23.74v-5.12a16.753,16.753,0,0,0-15.294,16.9,17.007,17.007,0,0,0,30.758,10.08l-4.419-2.56A12.012,12.012,0,0,1,360,1216.87Zm0.317-16.09a4.421,4.421,0,1,1-4.333,4.42A4.378,4.378,0,0,1,360.315,1200.78Z" transform="translate(-343 -1188)"/>
</svg>
