<!-- Generated by IcoMoon.io -->
<svg version="1.1" xmlns="http://www.w3.org/2000/svg" width="32" height="32" viewBox="0 0 32 32">
<title>md-dry-filter</title>
<path d="M16.038 2.45c-4.517 0-8.038 2.067-8.038 4.746s3.522 4.746 8.038 4.746 8.038-2.067 8.038-4.746-3.522-4.746-8.038-4.746zM16.038 11.1c-3.904 0-7.273-1.837-7.273-3.981s3.368-3.981 7.273-3.981 7.273 1.837 7.273 3.981-3.368 3.981-7.273 3.981z"></path>
<path d="M17.876 6.966c0 0.592-0.891 1.072-1.99 1.072s-1.99-0.48-1.99-1.072c0-0.592 0.891-1.072 1.99-1.072s1.99 0.48 1.99 1.072z"></path>
<path d="M16.88 4.593c0 0.296-0.446 0.536-0.995 0.536s-0.995-0.24-0.995-0.536c0-0.296 0.446-0.536 0.995-0.536s0.995 0.24 0.995 0.536z"></path>
<path d="M16.88 9.569c0 0.296-0.446 0.536-0.995 0.536s-0.995-0.24-0.995-0.536c0-0.296 0.446-0.536 0.995-0.536s0.995 0.24 0.995 0.536z"></path>
<path d="M20.325 8.574c0 0.296-0.446 0.536-0.995 0.536s-0.995-0.24-0.995-0.536c0-0.296 0.446-0.536 0.995-0.536s0.995 0.24 0.995 0.536z"></path>
<path d="M22.545 6.966c0 0.296-0.446 0.536-0.995 0.536s-0.995-0.24-0.995-0.536c0-0.296 0.446-0.536 0.995-0.536s0.995 0.24 0.995 0.536z"></path>
<path d="M20.325 5.665c0 0.296-0.446 0.536-0.995 0.536s-0.995-0.24-0.995-0.536c0-0.296 0.446-0.536 0.995-0.536s0.995 0.24 0.995 0.536z"></path>
<path d="M13.359 8.574c0 0.296-0.446 0.536-0.995 0.536s-0.995-0.24-0.995-0.536c0-0.296 0.446-0.536 0.995-0.536s0.995 0.24 0.995 0.536z"></path>
<path d="M11.139 6.966c0 0.296-0.446 0.536-0.995 0.536s-0.995-0.24-0.995-0.536c0-0.296 0.446-0.536 0.995-0.536s0.995 0.24 0.995 0.536z"></path>
<path d="M13.359 5.665c0 0.296-0.446 0.536-0.995 0.536s-0.995-0.24-0.995-0.536c0-0.296 0.446-0.536 0.995-0.536s0.995 0.24 0.995 0.536z"></path>
<path d="M16.038 0c-6.737 0-12.096 3.139-12.096 7.12 0 0.842 0.23 1.684 0.689 2.45v17.608l0.23 0.23c0.077 0.077 4.44 4.593 11.024 4.593 3.292 0 7.12-1.148 11.254-4.517l0.306-0.23v-17.761c0.383-0.689 0.612-1.455 0.612-2.297 0-4.057-5.282-7.196-12.019-7.196zM8.766 28.555c-1.301-0.766-2.22-1.531-2.603-1.914v-5.665c0.612 0.536 1.531 1.072 2.603 1.684v5.895zM13.129 30.239c-1.378-0.306-2.603-0.766-3.598-1.301v-6.048c1.072 0.459 2.297 0.919 3.598 1.148v6.201zM17.952 30.392c-1.455 0.23-2.833 0.23-4.057 0.077v-6.124c0.612 0.077 1.301 0.153 1.99 0.153s1.378-0.077 2.067-0.153v6.048zM22.699 28.708c-1.378 0.766-2.756 1.225-3.981 1.531v-6.124c1.301-0.23 2.603-0.689 3.981-1.378v5.971zM25.914 26.565c-0.842 0.689-1.684 1.225-2.45 1.684v-5.895c0.766-0.459 1.608-0.919 2.45-1.531v5.742zM25.914 18.909c-10.335 8.268-18.373 1.378-19.751 0.077v-7.579c2.144 1.837 5.742 2.986 9.799 2.986 4.134 0 7.732-1.225 9.876-3.062l0.077 7.579zM16.038 12.785c-5.742 0-10.565-2.603-10.565-5.589s4.823-5.589 10.565-5.589 10.565 2.603 10.565 5.589-4.9 5.589-10.565 5.589z"></path>
</svg>
