<!-- Generated by IcoMoon.io -->
<svg version="1.1" xmlns="http://www.w3.org/2000/svg" width="32" height="32" viewBox="0 0 32 32">
<title>md-fuel-drop-alert</title>
<path d="M18.333 11.333c0-2-1-3.4-2-4.867l-0.133-0.333-4.333-5.867c-0.2-0.2-0.467-0.267-0.667-0.267s-0.467 0.067-0.6 0.333l-4.667 6.133c-1.133 1.667-1.867 2.933-1.867 4.867 0 4 3.2 7.2 7.2 7.2 3.867 0 7.067-3.2 7.067-7.2zM11.133 17.067c-3.133 0-5.733-2.6-5.733-5.733 0-1.533 0.533-2.333 1.667-4l4.067-5.333 3.733 5 0.133 0.2c1.067 1.533 1.733 2.533 1.733 4.133 0.133 3.133-2.467 5.733-5.6 5.733z"></path>
<path d="M26.2 22.133l-0.133-0.133-3.4-4.667c-0.133-0.2-0.4-0.333-0.6-0.333v0c-0.2 0-0.467 0.067-0.6 0.333l-3.667 4.867c-0.933 1.333-1.6 2.333-1.6 3.933 0 3.2 2.6 5.867 5.867 5.867s5.867-2.6 5.867-5.867c-0.067-1.667-0.8-2.667-1.733-4zM22 30.467c-2.4 0-4.333-1.933-4.333-4.333 0-1.133 0.4-1.8 1.267-3.067l3.067-4.067 2.867 3.8 0.133 0.2c0.8 1.2 1.333 1.933 1.333 3.067 0.067 2.467-1.933 4.4-4.333 4.4z"></path>
</svg>
