<!-- Generated by IcoMoon.io -->
<svg version="1.1" xmlns="http://www.w3.org/2000/svg" width="32" height="32" viewBox="0 0 32 32">
<title>md-low-oil</title>
<path d="M28.473 12.484c-0.163-0.217-0.434-0.271-0.651-0.163l-7.923 3.527-1.791-2.116c-0.109-0.109-0.271-0.217-0.434-0.217h-4.83v-1.411h3.365c0.326 0 0.543-0.271 0.543-0.543 0-0.326-0.217-0.543-0.543-0.543h-7.272c-0.326 0-0.543 0.271-0.543 0.543 0 0.326 0.217 0.543 0.543 0.543h2.822v1.411h-2.659l-6.024-3.907c-0.109-0.054-0.271-0.109-0.434-0.054s-0.271 0.109-0.326 0.217l-2.225 3.582c-0.109 0.163-0.109 0.326-0.054 0.488s0.163 0.271 0.326 0.326l6.784 2.279v5.481c0 0.326 0.217 0.543 0.543 0.543h12.482c0.163 0 0.326-0.054 0.434-0.163l7.869-9.117c0.109-0.217 0.163-0.488 0-0.706zM7.145 14.058v1.248l-5.807-1.954 1.574-2.551 4.341 2.822c-0.054 0.109-0.109 0.271-0.109 0.434zM19.898 21.384h-11.668v-6.784h9.171l1.899 2.279c0.163 0.163 0.434 0.271 0.651 0.163l6.132-2.713-6.187 7.055z"></path>
<path d="M31.24 17.422l-0.054-0.109-1.574-2.116c-0.054-0.109-0.217-0.163-0.326-0.163v0c-0.109 0-0.271 0.054-0.326 0.163l-1.682 2.225c-0.434 0.597-0.706 1.085-0.706 1.791 0 1.52 1.194 2.713 2.713 2.713s2.713-1.194 2.713-2.713c0-0.76-0.326-1.248-0.76-1.791zM29.287 21.113c-1.031 0-1.899-0.868-1.899-1.899 0-0.488 0.163-0.76 0.543-1.357l1.357-1.791 1.248 1.628 0.054 0.109c0.38 0.543 0.597 0.868 0.597 1.357 0 1.14-0.868 1.954-1.899 1.954z"></path>
</svg>
