<svg id="Layer_1" data-name="Layer 1" xmlns="http://www.w3.org/2000/svg" viewBox="0 0 48 48"><defs><style>.cls-1{fill:#010101;}</style></defs><title>Artboard 14</title><path class="cls-1" d="M4,17.79v17.4A4.85,4.85,0,0,0,8.88,40H39.11A4.86,4.86,0,0,0,44,35.19V17.79a4.63,4.63,0,0,0-4.65-4.58h-6.5l-.15-.66A5.92,5.92,0,0,0,26.89,8H21.1a5.92,5.92,0,0,0-5.81,4.55l-.16.66H8.64A4.62,4.62,0,0,0,4,17.79Zm11.93-2.6a1,1,0,0,0,1-.77L17.24,13a3.93,3.93,0,0,1,3.86-3h5.79a3.94,3.94,0,0,1,3.86,3l.33,1.43a1,1,0,0,0,1,.77h7.29A2.63,2.63,0,0,1,42,17.79v17.4A2.86,2.86,0,0,1,39.11,38H8.88A2.86,2.86,0,0,1,6,35.19V17.79a2.62,2.62,0,0,1,2.64-2.6Z"/><ellipse class="cls-1" cx="10.76" cy="19.39" rx="1.34" ry="1.32"/><path class="cls-1" d="M24,34.94a8.28,8.28,0,1,0-8.4-8.28A8.36,8.36,0,0,0,24,34.94Zm0-14.59a6.31,6.31,0,1,1-6.4,6.31A6.37,6.37,0,0,1,24,20.35Z"/></svg>