<!-- Generated by IcoMoon.io -->
<svg version="1.1" xmlns="http://www.w3.org/2000/svg" width="32" height="32" viewBox="0 0 32 32">
<title>air-filter</title>
<path d="M29.467 9.8h-1.933v-2.133h-2.2c-1.267 0-2.4 0.933-2.6 2.2l-0.067 0.267h-4.4l-7.133-7.667 1-0.933-0.867-0.933-7.267 6.667 0.867 0.933 1.133-1 2.933 3.133-0.533 0.133c-4.733 1.2-8.067 5.4-8.067 10.267 0 5.867 4.8 10.667 10.667 10.667s10.667-4.8 10.667-10.667c0-1.333-0.267-2.6-0.733-3.867l-0.2-0.467h2l0.067 0.267c0.333 1.133 1.333 1.933 2.533 1.933h2.133v-1.933h1.933c1.2 0 2.2-1 2.2-2.2v-2.467c0.067-1.2-0.933-2.2-2.133-2.2zM6.933 6.333l3.2-3 6.267 6.733h-5.4c-0.067 0-0.067 0-0.133 0h-0.267l-3.667-3.733zM22.667 15.133h-12.067c-3 0.133-5.4 2.667-5.4 5.667 0 3.133 2.533 5.667 5.667 5.667s5.667-2.533 5.667-5.667c0-1.4-0.533-2.733-1.467-3.8l-0.533-0.533h4.8l0.067 0.2c0.6 1.267 0.933 2.667 0.933 4.133 0 5.133-4.2 9.333-9.333 9.333s-9.333-4.2-9.333-9.333c0-5.133 4.2-9.333 9.333-9.333h11.667v3.667zM13.667 20.533c-0.6 0-1.133-0.467-1.133-1.133s0.467-1.133 1.133-1.133 1.133 0.467 1.133 1.133-0.533 1.133-1.133 1.133zM14.8 22.533c0 0.6-0.467 1.133-1.133 1.133s-1.133-0.467-1.133-1.133 0.467-1.133 1.133-1.133 1.133 0.533 1.133 1.133zM10.8 21.933c-0.6 0-1.133-0.467-1.133-1.133s0.467-1.133 1.133-1.133c0.6 0 1.133 0.467 1.133 1.133s-0.467 1.133-1.133 1.133zM11.933 23.8c0 0.6-0.467 1.133-1.133 1.133-0.6 0-1.133-0.467-1.133-1.133s0.467-1.133 1.133-1.133c0.667 0.067 1.133 0.533 1.133 1.133zM10.8 18.867c-0.6 0-1.133-0.467-1.133-1.133s0.467-1.133 1.133-1.133c0.6 0 1.133 0.467 1.133 1.133s-0.467 1.133-1.133 1.133zM8.2 20.533c-0.6 0-1.133-0.467-1.133-1.133s0.467-1.133 1.133-1.133 1.133 0.467 1.133 1.133-0.533 1.133-1.133 1.133zM9.333 22.533c0 0.6-0.467 1.133-1.133 1.133s-1.133-0.467-1.133-1.133 0.467-1.133 1.133-1.133 1.133 0.533 1.133 1.133zM26.2 17.333h-0.867c-0.733 0-1.333-0.6-1.333-1.333v-5.667c0-0.733 0.6-1.333 1.333-1.333h0.867v8.333zM30.333 14.533c0 0.533-0.4 0.933-0.933 0.933h-1.933v-4.333h1.933c0.533 0 0.933 0.4 0.933 0.933v2.467z"></path>
</svg>
