<!-- Generated by IcoMoon.io -->
<svg version="1.1" xmlns="http://www.w3.org/2000/svg" width="32" height="32" viewBox="0 0 32 32">
<title>ios-field-work</title>
<path d="M5.585 13.434c0 1.542-1.25 2.792-2.792 2.792s-2.792-1.25-2.792-2.792c0-1.542 1.25-2.792 2.792-2.792s2.792 1.25 2.792 2.792z"></path>
<path d="M20.377 2.792c0 1.542-1.25 2.792-2.792 2.792s-2.792-1.25-2.792-2.792c0-1.542 1.25-2.792 2.792-2.792s2.792 1.25 2.792 2.792z"></path>
<path d="M32 12c0 1.542-1.25 2.792-2.792 2.792s-2.792-1.25-2.792-2.792c0-1.542 1.25-2.792 2.792-2.792s2.792 1.25 2.792 2.792z"></path>
<path d="M25.811 29.208c0 1.542-1.25 2.792-2.792 2.792s-2.792-1.25-2.792-2.792c0-1.542 1.25-2.792 2.792-2.792s2.792 1.25 2.792 2.792z"></path>
<path d="M23.472 30.717l-22.264-17.283 16.377-11.774 12.755 10.038-6.868 19.019zM4.377 13.509l18.264 14.189 5.434-15.321-10.566-8.377-13.132 9.509z"></path>
</svg>
