<!-- Generated by IcoMoon.io -->
<svg version="1.1" xmlns="http://www.w3.org/2000/svg" width="32" height="32" viewBox="0 0 32 32">
<title>ios-filter</title>
<path d="M12.147 15.166c0.324 0.347 0.525 0.813 0.529 1.325v14.471c0.004 0.544 0.446 0.983 0.99 0.983 0.268 0 0.51-0.106 0.689-0.279l-0 0 4.087-4.633c0.546-0.655 0.839-0.974 0.839-1.62v-8.947c0.012-0.506 0.215-0.962 0.538-1.302l-0.001 0.001 11.75-12.59c0.267-0.267 0.431-0.636 0.431-1.043 0-0.816-0.661-1.477-1.477-1.477-0.031 0-0.061 0.001-0.091 0.003l0.004-0h-28.906c-0.016-0.001-0.034-0.001-0.052-0.001-0.816 0-1.477 0.661-1.477 1.477 0 0.406 0.164 0.775 0.43 1.042l-0-0z"></path>
</svg>
