<!-- Generated by IcoMoon.io -->
<svg version="1.1" xmlns="http://www.w3.org/2000/svg" width="32" height="32" viewBox="0 0 32 32">
<title>geofence-violation</title>
<path d="M13.867 31.8c-2 0-3.6-1.6-3.6-3.6 0-1.067 0.467-2 1.267-2.733l0.2-0.2-5.2-8.533-0.267 0.067c-0.4 0.133-0.8 0.2-1.2 0.2-2 0-3.6-1.6-3.6-3.6s1.6-3.6 3.6-3.6c0.267 0 0.533 0 0.8 0.067l0.133 0.133 2.133-2.333 1 0.867-1.867 2.067 0.267 0.2c0.733 0.667 1.133 1.6 1.133 2.6 0 0.867-0.333 1.667-0.867 2.333l-0.133 0.2 5.333 8.8 0.2-0.067c0.2-0.067 0.467-0.067 0.667-0.067 1.133 0 2.133 0.533 2.8 1.4l0.2 0.267 6.733-5.333-0.067-0.2c-0.133-0.333-0.133-0.733-0.133-1.067 0-1.2 0.6-2.333 1.6-3l0.267-0.2-5-9.133h-0.2c-0.133 0-0.2 0-0.333 0-2 0-3.6-1.6-3.6-3.6s1.6-3.6 3.6-3.6 3.6 1.6 3.6 3.6c0 1.133-0.533 2.267-1.533 2.933l-0.267 0.2 5 9.2h0.2c0.133 0 0.2 0 0.2 0 2 0 3.6 1.6 3.6 3.6s-1.6 3.6-3.6 3.6c-0.933 0-1.733-0.333-2.4-0.933l-0.2-0.2-6.933 5.467v0.2c0 0.133 0 0.267 0 0.467 0.067 1.933-1.533 3.533-3.533 3.533zM13.867 26c-1.267 0-2.267 1-2.267 2.267s1 2.267 2.267 2.267 2.267-1 2.267-2.267-1-2.267-2.267-2.267zM27 17.467c-1.267 0-2.267 1-2.267 2.267s1 2.267 2.267 2.267c1.267 0 2.267-1 2.267-2.267s-1-2.267-2.267-2.267zM5 11.2c-1.267 0-2.267 1-2.267 2.267s1 2.267 2.267 2.267 2.267-1 2.267-2.267-1-2.267-2.267-2.267zM19.733 1.6c-1.267 0-2.267 1-2.267 2.267s1 2.267 2.267 2.267 2.267-1 2.267-2.267-1.067-2.267-2.267-2.267z"></path>
</svg>
