<!-- Generated by IcoMoon.io -->
<svg version="1.1" xmlns="http://www.w3.org/2000/svg" width="32" height="32" viewBox="0 0 32 32">
<title>md-key-removal</title>
<path d="M30.667 19.667l-2.8-1.6c-0.8-0.467-1.8-0.4-2.533 0.067l-1.133 0.667c-0.2 0.133-0.4 0.133-0.6 0l-1.2-0.6c-0.8-0.4-1.733-0.4-2.467 0.067l-0.733 0.467c-0.2 0.133-0.467 0.133-0.667 0l-1.2-0.667c-0.733-0.467-1.6-0.467-2.4-0.133l-0.933 0.333c-1.133-2.533-3.667-4.2-6.667-4.2-4 0-7.333 3.267-7.333 7.333 0 4 3.333 7.267 7.333 7.333 0.067 0 0.067 0 0.133 0 4.733 0 6.267-3.133 6.733-4.467h15.467c1.267 0 2.333-1.067 2.333-2.333 0-1-0.533-1.867-1.333-2.267zM29.6 22.933h-16.533l-0.067 0.533c0 0.133-0.733 3.933-5.533 3.933 0 0-0.067 0-0.067 0-3.267 0-6-2.733-6-6s2.667-6 6-6c2.667 0 4.867 1.533 5.667 3.933l0.2 0.667 2.2-0.8h0.067c0.333-0.2 0.8-0.133 1.133 0.067l1.2 0.733c0.667 0.4 1.4 0.4 2.067 0l0.733-0.467c0.333-0.2 0.8-0.267 1.133-0.067l1.2 0.6c0.6 0.333 1.333 0.267 1.933-0.067l1.133-0.667c0.333-0.2 0.8-0.267 1.2 0l2.8 1.6c0.4 0.2 0.667 0.667 0.667 1.133-0.067 0.4-0.533 0.867-1.133 0.867z"></path>
<path d="M15.067 15.8h11.133c0.533 0 1-0.267 1.267-0.733s0.267-1 0-1.467l-5.533-9.6c-0.267-0.467-0.733-0.733-1.267-0.733v0c-0.533 0-1 0.267-1.267 0.733l-5.6 9.533c-0.267 0.467-0.267 1 0 1.467s0.733 0.8 1.267 0.8zM14.933 14.2l5.6-9.533c0.067-0.133 0.2-0.133 0.267 0l5.6 9.533c0.067 0.067 0 0.133 0 0.133 0 0.067-0.067 0.067-0.133 0.067h-11.2c-0.067 0-0.133-0.067-0.133-0.067s-0.067-0.067 0-0.133z"></path>
<path d="M20 7.733h1.333v3.467h-1.333v-3.467z"></path>
<path d="M19.867 11.867h1.533v1.533h-1.533v-1.533z"></path>
<path d="M6 18.933c-1.4 0-2.533 1.133-2.533 2.533s1.133 2.533 2.533 2.533 2.533-1.133 2.533-2.533-1.2-2.533-2.533-2.533zM6 22.6c-0.667 0-1.2-0.533-1.2-1.2s0.533-1.133 1.2-1.133 1.2 0.533 1.2 1.2-0.6 1.133-1.2 1.133z"></path>
</svg>
