<svg xmlns="http://www.w3.org/2000/svg" width="30" height="21" viewBox="0 0 30 21">
  <defs>
    <style>
      .cls-1 {
        fill-rule: evenodd;
      }
    </style>
  </defs>
  <path id="Rounded_Rectangle_3_copy_2" data-name="Rounded Rectangle 3 copy 2" class="cls-1" d="M610.938,92h16.124a0.938,0.938,0,0,1,.938.938v1.124a0.938,0.938,0,0,1-.938.938H610.938A0.938,0.938,0,0,1,610,94.062V92.938A0.938,0.938,0,0,1,610.938,92Zm0.006,9h28.112a0.944,0.944,0,0,1,.944.944v1.112a0.944,0.944,0,0,1-.944.944H610.944a0.944,0.944,0,0,1-.944-0.944v-1.112A0.944,0.944,0,0,1,610.944,101Zm-0.006,9h22.124a0.938,0.938,0,0,1,.938.938v1.124a0.938,0.938,0,0,1-.938.938H610.938a0.938,0.938,0,0,1-.938-0.938v-1.124A0.938,0.938,0,0,1,610.938,110Z" transform="translate(-610 -92)"/>
</svg>
