<!-- Generated by IcoMoon.io -->
<svg version="1.1" xmlns="http://www.w3.org/2000/svg" width="32" height="32" viewBox="0 0 32 32">
<title>ios-tractor-usage</title>
<path d="M29.675 29.053c0.332 0 0.598-0.266 0.598-0.598s-0.266-0.598-0.598-0.598h-1.528c3.919-2.591 5.049-7.839 2.458-11.758-0.133-0.133-0.199-0.332-0.332-0.465v-10.629c0-0.199-0.133-0.465-0.332-0.531l-2.657-1.461c-0.066-0.066-0.199-0.066-0.266-0.066h-1.926c-0.199 0-0.399 0.133-0.531 0.332l-4.119 7.174h-5.447l-0.066-1.262c0-0.332-0.266-0.598-0.598-0.598h-2.923v-2.989h1.395c0.332 0 0.598-0.266 0.598-0.598 0 0 0 0 0 0 0-0.332-0.266-0.598-0.598-0.598h-4.052c-0.332 0-0.598 0.266-0.598 0.598s0.266 0.598 0.598 0.598c0 0 0 0 0 0h1.395v2.923h-3.056c-1.993 0-2.856 1.794-3.388 3.322l-1.129 3.255c0 0.066-0.066 0.133-0.066 0.199v2.192c-2.856 2.192-3.321 6.311-1.129 9.167 0.332 0.465 0.731 0.864 1.196 1.196-0.266 0.066-0.399 0.332-0.399 0.598 0 0.332 0.266 0.598 0.598 0.598h8.636c0.332 0 0.598-0.266 0.598-0.598s-0.266-0.598-0.598-0.598h-1.329c1.594-1.196 2.524-3.122 2.524-5.181 0.066-3.521-2.724-6.377-6.244-6.444-0.864 0-1.727 0.199-2.524 0.531v-1.329l0.066-0.133h1.528c0.332 0 0.598-0.266 0.598-0.598s-0.266-0.598-0.598-0.598c0 0 0 0 0 0h-1.129l0.598-1.794c0.598-1.794 1.262-2.458 2.259-2.458h6.577l0.066 1.262c0 0.332 0.266 0.598 0.598 0.598h6.377c0.199 0 0.399-0.133 0.531-0.332l4.119-7.174h1.395l2.259 1.129v8.968c-1.461-1.262-3.255-1.926-5.181-1.926-3.122 0-5.979 1.86-7.307 4.716h-3.787c-0.332 0-0.598 0.266-0.598 0.598s0.266 0.598 0.598 0.598v0h3.255c-0.133 0.332-0.199 0.731-0.266 1.129h-1.926c-0.332 0-0.598 0.266-0.598 0.598 0 0 0 0 0 0 0 0.332 0.266 0.598 0.598 0.598h1.86v0.066c0 2.856 1.461 5.514 3.853 7.108h-0.864c-0.332 0-0.598 0.266-0.598 0.598s0.266 0.598 0.598 0.598l10.961 0.066zM6.358 17.495c2.856 0.066 5.115 2.458 4.982 5.314-0.066 2.724-2.259 4.916-4.982 4.982h-0.066c-2.856-0.133-5.049-2.524-4.982-5.381 0.133-2.657 2.325-4.849 5.049-4.916v0zM23.895 27.791h-0.066c-3.787 0-6.909-3.122-6.842-6.975 0-3.787 3.122-6.909 6.975-6.842 3.787 0 6.909 3.122 6.842 6.975-0.066 3.787-3.122 6.842-6.909 6.842v0zM6.358 25.2c1.395 0.066 2.591-1.063 2.657-2.458s-1.063-2.591-2.458-2.657c-1.395-0.066-2.591 1.063-2.657 2.458 0 0 0 0.066 0 0.066-0.066 1.461 1.063 2.591 2.458 2.591v0zM6.358 21.348c0.731 0 1.329 0.531 1.329 1.262s-0.531 1.329-1.262 1.329c-0.731 0-1.329-0.531-1.329-1.262 0 0 0 0 0-0.066 0-0.664 0.531-1.262 1.262-1.262 0 0 0 0 0 0v0zM29.010 18.558c-0.531-1.329-1.594-2.458-2.923-3.056-1.395-0.598-2.923-0.598-4.318 0-1.329 0.598-2.391 1.661-2.923 3.056-0.598 1.395-0.598 2.989 0 4.451 0.531 1.329 1.594 2.458 2.923 3.056 1.395 0.598 2.923 0.598 4.318 0 1.329-0.598 2.391-1.661 2.923-3.056 0.598-1.461 0.598-3.056 0-4.451v0zM27.483 22.875c-0.399 0.664-0.93 1.196-1.528 1.594-1.129 0.664-2.524 0.797-3.72 0.266-0.531-0.199-0.93-0.531-1.329-0.93s-0.664-0.864-0.93-1.395c-0.531-1.262-0.399-2.657 0.199-3.853 0.332-0.664 0.864-1.196 1.528-1.594 1.329-0.797 2.923-0.797 4.252 0 0.664 0.399 1.196 0.93 1.528 1.594 0.797 1.329 0.797 2.989 0 4.318v0zM24.294 20.683v-2.391c0-0.332-0.266-0.531-0.531-0.531s-0.531 0.266-0.531 0.531v2.591c0 0 0 0.066 0 0.066 0 0.133 0 0.332 0.133 0.465l1.528 1.129c0.199 0.199 0.531 0.199 0.731 0s0.199-0.531 0-0.797l-1.329-1.063z"></path>
</svg>
